<?xml version="1.0" encoding="utf-8"?>
<svg width="644.625px" height="525.4724px" viewBox="0 0 644.625 525.4724" version="1.1" xmlns:xlink="http://www.w3.org/1999/xlink" xmlns="http://www.w3.org/2000/svg">
  <g id="discord" transform="matrix(0.9902682 -0.139173 0.139173 0.9902682 0 81.833435)">
    <path d="M498.531 37.8367C498.367 37.5201 498.097 37.2719 497.767 37.1367C459.644 19.6453 419.413 7.17261 378.081 0.0306989C377.311 -0.112425 376.535 0.254416 376.158 0.940729C370.68 10.8837 365.707 21.0968 361.258 31.5411C316.704 24.7778 271.385 24.7777 226.832 31.5407C222.354 21.0699 217.301 10.8543 211.697 0.940368C211.303 0.270644 210.54 -0.0901823 209.773 0.030734C168.437 7.15762 128.203 19.6313 90.0849 37.1377C89.7586 37.2761 89.4832 37.5123 89.2969 37.8137C13.0679 151.652 -7.81413 262.691 2.42987 372.355C2.48809 372.898 2.76414 373.394 3.19487 373.73C47.5823 406.595 97.2301 431.682 150.02 447.919C150.781 448.147 151.604 447.877 152.083 447.243C163.421 431.816 173.467 415.48 182.12 398.401C182.36 397.927 182.387 397.372 182.192 396.878C181.997 396.383 181.6 395.996 181.101 395.813C165.258 389.751 149.921 382.444 135.233 373.96C134.691 373.641 134.344 373.074 134.306 372.446C134.269 371.819 134.547 371.214 135.048 370.834C138.13 368.525 141.214 366.123 144.157 363.697C144.69 363.258 145.426 363.158 146.057 363.441C242.286 407.358 346.467 407.358 441.557 363.441C442.189 363.14 442.938 363.231 443.481 363.674C446.425 366.1 449.508 368.525 452.613 370.834C453.116 371.21 453.398 371.813 453.366 372.44C453.333 373.068 452.99 373.637 452.451 373.96C437.796 382.515 422.445 389.818 406.561 395.79C406.062 395.98 405.668 396.373 405.477 396.871C405.286 397.37 405.316 397.926 405.561 398.401C414.358 415.385 424.39 431.7 435.575 447.216C436.041 447.868 436.871 448.15 437.638 447.916C490.522 431.734 540.257 406.645 584.7 373.73C585.138 373.41 585.416 372.918 585.465 372.378C597.729 245.595 564.933 135.466 498.531 37.8367L498.531 37.8367ZM196.491 305.581C167.519 305.581 143.647 278.994 143.647 246.342C143.647 213.69 167.056 187.101 196.491 187.101C226.156 187.101 249.797 213.921 249.334 246.34C249.334 278.994 225.924 305.581 196.491 305.581L196.491 305.581ZM391.871 305.581C362.9 305.581 339.028 278.994 339.028 246.342C339.028 213.69 362.437 187.101 391.871 187.101C421.538 187.101 445.178 213.921 444.715 246.34C444.715 278.994 421.538 305.581 391.871 305.581L391.871 305.581Z" id="Shape" fill="#5463E6" fill-rule="evenodd" stroke="none" />
  </g>
</svg>