<?xml version="1.0" encoding="utf-8"?>
<svg width="559.7854px" height="557.23193px" viewBox="0 0 559.7854 557.23193" version="1.1" xmlns:xlink="http://www.w3.org/1999/xlink" xmlns="http://www.w3.org/2000/svg">
  <g id="facebook" transform="matrix(0.9902682 -0.139173 0.139173 0.9902682 0 69.029785)">
    <path d="M496 248C496 111 385 -1.78109e-06 248 -1.1473e-06C111 -5.1351e-07 5.1351e-07 111 1.1473e-06 248C1.71994e-06 371.78 90.69 474.38 209.25 493L209.25 319.69L146.25 319.69L146.25 248L209.25 248L209.25 193.36C209.25 131.21 246.25 96.88 302.92 96.88C330.06 96.88 358.44 101.72 358.44 101.72L358.44 162.72L327.16 162.72C296.36 162.72 286.75 181.84 286.75 201.45L286.75 248L355.53 248L344.53 319.69L286.75 319.69L286.75 493C405.31 474.38 496 371.78 496 248L496 248Z" id="Shape" fill="#395297" stroke="none" />
  </g>
</svg>