<?xml version="1.0" encoding="utf-8"?>
<svg width="528.77277px" height="447.07736px" viewBox="0 0 528.77277 447.07736" version="1.1" xmlns:xlink="http://www.w3.org/1999/xlink" xmlns="http://www.w3.org/2000/svg">
  <g id="github-alt" transform="matrix(0.9902682 -0.139173 0.139173 0.9902682 0 66.80304)">
    <path d="M186.1 264.7C186.1 285.6 175.2 319.8 149.4 319.8C123.6 319.8 112.7 285.6 112.7 264.7C112.7 243.8 123.6 209.6 149.4 209.6C175.2 209.6 186.1 243.8 186.1 264.7L186.1 264.7ZM480 214.2C480 246.1 476.8 279.9 462.5 309.2C424.6 385.8 320.4 384 245.8 384C170 384 59.6 386.7 20.2 309.2C5.6 280.2 1.43459e-06 246.1 1.28701e-06 214.2C1.09318e-06 172.3 13.9 132.7 41.5 100.6C36.3 84.8 33.8 68.2 33.8 51.8C33.8 30.3 38.7 19.5 48.4 -2.23909e-07C93.7 -4.33477e-07 122.7 9 157.2 36C186.2 29.1 216 26 245.9 26C272.9 26 300.1 28.9 326.3 35.2C360.3 8.5 389.3 -5.61568e-06 434.1 -5.82294e-06C443.9 19.5 448.7 30.3 448.7 51.8C448.7 68.2 446.1 84.5 441 100C468.5 132.4 480 172.3 480 214.2L480 214.2ZM415.7 264.7C415.7 220.8 389 182.1 342.2 182.1C323.3 182.1 305.2 185.5 286.2 188.1C271.3 190.4 256.4 191.3 241.1 191.3C225.9 191.3 211 190.4 196 188.1C177.3 185.5 159 182.1 140 182.1C93.2 182.1 66.5 220.8 66.5 264.7C66.5 352.5 146.9 366 216.9 366L265.1 366C335.4 366 415.7 352.6 415.7 264.7L415.7 264.7ZM333.1 209.6C307.3 209.6 296.4 243.8 296.4 264.7C296.4 285.6 307.3 319.8 333.1 319.8C358.9 319.8 369.8 285.6 369.8 264.7C369.8 243.8 358.9 209.6 333.1 209.6L333.1 209.6Z" id="Shape" fill="#7E15DD" fill-rule="evenodd" stroke="none" />
  </g>
</svg>