<?xml version="1.0" encoding="utf-8"?>
<svg width="506.25818px" height="506.1729px" viewBox="0 0 506.25818 506.1729" version="1.1" xmlns:xlink="http://www.w3.org/1999/xlink" xmlns="http://www.w3.org/2000/svg">
  <defs>
    <radialGradient gradientUnits="objectBoundingBox" cx="-4.3351147E-06%" cy="4.3351147E-06%" fx="-4.3351147E-06%" fy="4.3351147E-06%" r="141.43713%" gradientTransform="translate(-4.3351147E-08,4.3351147E-08),scale(0.99977684,1),rotate(44.993637),translate(4.3351147E-08,-4.3351147E-08)" id="gradient_1">
      <stop offset="0%" stop-color="#D03775" />
      <stop offset="34.5679%" stop-color="#ECC835" />
      <stop offset="57.098763%" stop-color="#505ECB" />
      <stop offset="77.46913%" stop-color="#8A39B1" />
      <stop offset="100%" stop-color="#D03775" />
    </radialGradient>
  </defs>
  <g id="instagram" transform="matrix(0.9902681 -0.139173 0.139173 0.9902681 0 62.384277)">
    <path d="M224.175 109.175C160.575 109.175 109.275 160.475 109.275 224.075C109.275 287.675 160.575 338.975 224.175 338.975C287.775 338.975 339.075 287.675 339.075 224.075C339.075 160.475 287.775 109.175 224.175 109.175L224.175 109.175ZM224.175 298.775C183.075 298.775 149.475 265.275 149.475 224.075C149.475 182.875 182.975 149.375 224.175 149.375C265.375 149.375 298.875 182.875 298.875 224.075C298.875 265.275 265.275 298.775 224.175 298.775L224.175 298.775ZM370.575 104.475C370.575 119.375 358.575 131.275 343.775 131.275C328.875 131.275 316.975 119.275 316.975 104.475C316.975 89.6749 328.975 77.6749 343.775 77.6749C358.575 77.6749 370.575 89.6749 370.575 104.475L370.575 104.475ZM446.675 131.675C444.975 95.7749 436.775 63.9749 410.475 37.7749C384.275 11.5749 352.475 3.37489 316.575 1.5749C279.575 -0.525096 168.675 -0.525082 131.675 1.57492C95.8751 3.27493 64.0751 11.4749 37.7751 37.6749C11.4751 63.8749 3.37513 95.6749 1.57514 131.575C-0.524857 168.575 -0.524843 279.475 1.57516 316.475C3.27517 352.375 11.4752 384.175 37.7752 410.375C64.0752 436.575 95.7752 444.775 131.675 446.575C168.675 448.675 279.575 448.675 316.575 446.575C352.475 444.875 384.275 436.675 410.475 410.375C436.675 384.175 444.875 352.375 446.675 316.475C448.775 279.475 448.775 168.675 446.675 131.675L446.675 131.675ZM398.875 356.175C391.075 375.775 375.975 390.875 356.275 398.775C326.775 410.475 256.775 407.775 224.175 407.775C191.575 407.775 121.475 410.375 92.0751 398.775C72.4751 390.975 57.3751 375.875 49.4751 356.175C37.7751 326.675 40.4751 256.675 40.4751 224.075C40.4751 191.475 37.8751 121.375 49.4751 91.9749C57.2751 72.3749 72.3751 57.2749 92.0751 49.3749C121.575 37.6749 191.575 40.3749 224.175 40.3749C256.775 40.3749 326.875 37.7749 356.275 49.3749C375.875 57.1749 390.975 72.2749 398.875 91.9749C410.575 121.475 407.875 191.475 407.875 224.075C407.875 256.675 410.575 326.775 398.875 356.175L398.875 356.175Z" id="Shape" fill="url(#gradient_1)" fill-rule="evenodd" stroke="none" />
  </g>
</svg>