<?xml version="1.0" encoding="utf-8"?>
<svg width="505.98962px" height="505.98962px" viewBox="0 0 505.98962 505.98962" version="1.1" xmlns:xlink="http://www.w3.org/1999/xlink" xmlns="http://www.w3.org/2000/svg">
  <g id="linkedin" transform="matrix(0.9902682 -0.139173 0.139173 0.9902682 0 62.349487)">
    <path d="M416 9.48527e-06L31.9 1.48161e-05C14.3 1.50603e-05 3.4928e-07 14.5 5.9632e-07 32.3L5.9174e-06 415.7C6.16444e-06 433.5 14.3 448 31.9 448L416 448C433.6 448 448 433.5 448 415.7L448 32.3C448 14.5 433.6 1.30557e-05 416 1.33e-05L416 9.48527e-06ZM135.4 384L69 384L69 170.2L135.5 170.2L135.5 384L135.4 384ZM102.2 141C80.9 141 63.7 123.7 63.7 102.5C63.7 81.3 80.9 64 102.2 64C123.4 64 140.7 81.3 140.7 102.5C140.7 123.8 123.5 141 102.2 141L102.2 141ZM384.3 384L317.9 384L317.9 280C317.9 255.2 317.4 223.3 283.4 223.3C248.8 223.3 243.5 250.3 243.5 278.2L243.5 384L177.1 384L177.1 170.2L240.8 170.2L240.8 199.4L241.7 199.4C250.6 182.6 272.3 164.9 304.6 164.9C371.8 164.9 384.3 209.2 384.3 266.8L384.3 384L384.3 384Z" id="Shape" fill="#1A72AE" fill-rule="evenodd" stroke="none" />
  </g>
</svg>