<?xml version="1.0" encoding="utf-8"?>
<svg width="476.2904px" height="501.88538px" viewBox="0 0 476.2904 501.88538" version="1.1" xmlns:xlink="http://www.w3.org/1999/xlink" xmlns="http://www.w3.org/2000/svg">
  <g id="mastodon" transform="matrix(0.9902682 -0.139173 0.139173 0.9902682 0 58.174194)">
    <path d="M417.983 147.113C417.983 49.9126 354.273 21.4126 354.273 21.4126C291.753 -7.28736 125.713 -6.98736 63.7931 21.4126C63.7931 21.4126 0.073097 49.9126 0.0731002 147.113C0.0731041 262.813 -6.52689 406.513 105.703 436.213C146.213 446.913 181.023 449.213 209.033 447.613C259.843 444.813 288.353 429.513 288.353 429.513L286.653 392.613C286.653 392.613 250.343 404.013 209.533 402.713C169.123 401.313 126.533 398.313 119.903 348.713C119.288 344.105 118.988 339.461 119.003 334.813C204.633 355.713 277.653 343.913 297.753 341.513C353.873 334.813 402.753 300.213 408.983 268.613C418.783 218.813 417.983 147.113 417.983 147.113L417.983 147.113ZM342.863 272.313L296.233 272.313L296.233 158.113C296.233 108.413 232.233 106.513 232.233 165.013L232.233 227.513L185.903 227.513L185.903 165.003C185.903 106.503 121.903 108.403 121.903 158.103L121.903 272.303L75.1731 272.303C75.1731 150.203 69.9731 124.403 93.5831 97.3026C119.483 68.4026 173.403 66.5026 197.413 103.403L209.013 122.903L220.613 103.403C244.723 66.3026 298.733 68.6026 324.443 97.3026C348.153 124.603 342.843 150.303 342.843 272.303L342.863 272.313Z" id="Shape" fill="#368BCE" fill-rule="evenodd" stroke="none" />
  </g>
</svg>