<?xml version="1.0" encoding="utf-8"?>
<svg width="505.98962px" height="505.98962px" viewBox="0 0 505.98962 505.98962" version="1.1" xmlns:xlink="http://www.w3.org/1999/xlink" xmlns="http://www.w3.org/2000/svg">
  <g id="medium" transform="matrix(0.9902682 -0.139173 0.139173 0.9902682 0 62.349487)">
    <path d="M1.48039e-07 0L2.22059e-06 448L448 448L448 -2.07255e-06L1.48039e-07 0L1.48039e-07 0ZM372.2 106.1L348.2 129.1C346.1 130.7 345.1 133.3 345.5 135.8L345.5 305.1C345.1 307.7 346.1 310.3 348.2 311.8L371.7 334.8L371.7 339.9L253.7 339.9L253.7 335L278 311.4C280.4 309 280.4 308.3 280.4 304.7L280.4 167.8L212.8 339.4L203.7 339.4L125 167.8L125 282.8C124.3 287.6 126 292.5 129.4 296L161 334.3L161 339.4L71.2 339.4L71.2 334.3L102.8 296C106.2 292.5 107.7 287.6 106.9 282.8L106.9 149.8C107.3 146.1 105.9 142.5 103.1 140L75 106.1L75 101L162.3 101L229.7 249L289 101.1L372.2 101.1L372.2 106.1L372.2 106.1Z" id="Shape" fill="#675D5D" fill-rule="evenodd" stroke="none" />
  </g>
</svg>