<?xml version="1.0" encoding="utf-8"?>
<svg width="532.19995px" height="509.7704px" viewBox="0 0 532.19995 509.7704" version="1.1" xmlns:xlink="http://www.w3.org/1999/xlink" xmlns="http://www.w3.org/2000/svg">
  <g id="reddit-alien" transform="matrix(0.9902682 -0.139173 0.139173 0.9902682 0 66.03125)">
    <path d="M421.547 171.6C406.547 171.6 393.347 177.8 383.647 187.5C347.947 162.8 299.847 146.9 246.547 145.2L274.247 20.3999L362.447 40.1999C362.447 61.7999 380.047 79.3999 401.647 79.3999C423.647 79.3999 441.347 61.2999 441.347 39.6999C441.347 18.0999 423.747 -0.000143104 401.647 -0.000143002C386.247 -0.000142931 372.947 9.29986 366.347 21.9999L268.947 0.399855C264.047 -0.900144 259.247 2.59986 257.947 7.49985L227.547 145.1C174.647 147.3 127.047 163.2 91.2472 187.9C81.5472 177.8 67.8472 171.6 52.8472 171.6C-2.75281 171.6 -20.9528 246.2 29.9472 271.7C28.1472 279.6 27.3472 288 27.3472 296.4C27.3472 380.2 121.747 448.1 237.647 448.1C354.047 448.1 448.447 380.2 448.447 296.4C448.447 288 447.547 279.2 445.347 271.3C495.247 245.7 476.847 171.6 421.547 171.6L421.547 171.6ZM110.647 277C110.647 255 128.247 237.3 150.347 237.3C171.947 237.3 189.547 254.9 189.547 277C189.547 298.6 171.947 316.2 150.347 316.2C128.347 316.3 110.647 298.6 110.647 277L110.647 277ZM324.947 370.5C288.547 406.9 185.847 406.9 149.447 370.5C145.447 367 145.447 360.8 149.447 356.8C152.947 353.3 159.147 353.3 162.647 356.8C190.447 385.3 282.647 385.8 311.647 356.8C315.147 353.3 321.347 353.3 324.847 356.8C328.947 360.8 328.947 367 324.947 370.5L324.947 370.5ZM324.147 316.3C302.547 316.3 284.947 298.7 284.947 277.1C284.947 255.1 302.547 237.4 324.147 237.4C346.147 237.4 363.847 255 363.847 277.1C363.747 298.6 346.147 316.3 324.147 316.3L324.147 316.3Z" id="Shape" fill="#F04C1F" fill-rule="evenodd" stroke="none" />
  </g>
</svg>