<?xml version="1.0" encoding="utf-8"?>
<svg width="437.26514px" height="496.33102px" viewBox="0 0 437.26514 496.33102" version="1.1" xmlns:xlink="http://www.w3.org/1999/xlink" xmlns="http://www.w3.org/2000/svg">
  <g id="stack-overflow" transform="matrix(0.9902682 -0.139173 0.139173 0.9902682 0 52.690918)">
    <path d="M319.5 408L40 408L40 288L7.99411e-06 288L1.78974e-05 448L359.5 448L359.5 288L319.5 288L319.5 408Z" id="Shape-Path" fill="#B6B5B5" stroke="none" />
    <path d="M279.8 328L79.8 328L79.8 367.7L279.8 367.7L279.8 328Z" id="Shape-Path" fill="#E87F33" stroke="none" />
    <path d="M259.3 -7.81771e-06L227.3 24L346.6 184.3L378.6 160.3L259.3 -7.81771e-06Z" id="Shape-Path" fill="#E87F33" stroke="none" />
    <path d="M307.8 231.7L126.5 147L109.8 183.5L291 268L307.8 231.7Z" id="Shape-Path" fill="#E87F33" stroke="none" />
    <path d="M339 192L185.5 63.7L160 94.5L313.5 222.8L339 192Z" id="Shape-Path" fill="#E87F33" stroke="none" />
    <path d="M288 279L92.3001 237.7L84.1001 277L279.8 318L288 279Z" id="Shape-Path" fill="#E87F33" stroke="none" />
  </g>
</svg>