<?xml version="1.0" encoding="utf-8"?>
<svg width="560.2029px" height="560.20276px" viewBox="0 0 560.2029 560.20276" version="1.1" xmlns:xlink="http://www.w3.org/1999/xlink" xmlns="http://www.w3.org/2000/svg">
  <g id="steam" transform="matrix(0.9902682 -0.139173 0.139173 0.9902682 0 69.029785)">
    <path d="M496 248C496 385 384.8 496 247.6 496C133.8 496 38 419.7 8.60001 315.6L103.8 354.9C110.2 387 138.7 411.3 172.7 411.3C211.9 411.3 244.6 378.9 242.9 337.8L327.4 277.6C379.5 278.9 423.2 236.7 423.2 184.1C423.2 132.5 381.2 90.6 329.5 90.6C277.8 90.6 235.8 132.6 235.8 184.1L235.8 185.3L176.6 271C161.1 270.1 145.9 274.4 133.1 283.1L1.09225e-06 228.1C10.2 100.4 117.1 -5.4173e-07 247.6 -1.14545e-06C384.8 -1.78017e-06 496 111 496 248L496 248ZM155.7 376.3L125.2 363.7C130.805 375.338 140.482 384.517 152.4 389.5C179.3 400.7 210.2 387.9 221.4 361.1C226.8 348.1 226.9 333.8 221.5 320.8C216.1 307.8 206 297.6 193 292.2C180.1 286.8 166.3 287 154.1 291.6L185.6 304.6C205.4 312.8 214.8 335.5 206.5 355.3C198.2 375.2 175.5 384.5 155.7 376.3L155.7 376.3ZM329.5 246.4C295.1 246.4 267.1 218.4 267.1 184.1C267.1 149.8 295.1 121.8 329.5 121.8C363.9 121.8 391.9 149.8 391.9 184.1C391.9 218.4 364 246.4 329.5 246.4L329.5 246.4ZM329.6 230.8C355.5 230.8 376.5 209.8 376.5 184C376.5 158.1 355.5 137.2 329.6 137.2C303.7 137.2 282.7 158.2 282.7 184C282.8 209.8 303.8 230.8 329.6 230.8L329.6 230.8Z" id="Shape" fill="#1B5486" fill-rule="evenodd" stroke="none" />
  </g>
</svg>