<?xml version="1.0" encoding="utf-8"?>
<svg width="548.06366px" height="605.9429px" viewBox="0 0 548.06366 605.9429" version="1.1" xmlns:xlink="http://www.w3.org/1999/xlink" xmlns="http://www.w3.org/2000/svg">
  <g id="tiktok" transform="matrix(0.99026823 -0.13917302 0.13917302 0.99026823 0 66.36773)">
    <path d="M476.872 242.91C432.847 243.015 389.901 229.285 354.102 203.66L354.102 382.38C354.102 450.103 312.041 510.771 248.564 534.544C185.087 558.318 113.521 540.207 68.9942 489.101C24.4671 437.994 16.3271 364.623 48.5696 304.999C80.8121 245.376 146.668 212.019 213.812 221.302L213.872 311.2C183.096 301.519 149.584 312.714 130.805 338.949C112.026 365.183 112.234 400.515 131.321 426.526C150.407 452.538 184.049 463.337 214.709 453.295C245.369 443.252 266.103 414.643 266.102 382.38L266.102 33L354.102 33C354.041 40.4319 354.664 47.8531 355.962 55.1705L355.962 55.17C362.142 88.1831 381.64 117.196 409.872 135.39C429.746 148.531 453.047 155.535 476.872 155.53L476.872 242.91Z" id="Shape" fill="#F72653" fill-rule="evenodd" stroke="none" />
    <path d="M447.872 209.91C403.847 210.015 360.901 196.285 325.102 170.66L325.102 349.38C325.102 417.103 283.041 477.771 219.564 501.544C156.087 525.318 84.5212 507.207 39.9941 456.101C-4.53299 404.994 -12.673 331.623 19.5695 271.999C51.812 212.376 117.668 179.019 184.812 188.302L184.872 278.2C154.096 268.519 120.584 279.714 101.805 305.949C83.0261 332.183 83.2342 367.515 102.321 393.526C121.407 419.538 155.049 430.337 185.709 420.295C216.369 410.252 237.103 381.643 237.102 349.38L237.102 -1.98571e-06L325.102 -2.7227e-06C325.041 7.4319 325.664 14.8531 326.962 22.1705L326.962 22.17C333.142 55.1831 352.64 84.1964 380.872 102.39C400.746 115.531 424.047 122.535 447.872 122.53L447.872 209.91Z" id="Shape" fill="#47F5EE" style="mix-blend-mode: darken;" stroke="none" />
  </g>
</svg>