<?xml version="1.0" encoding="utf-8"?>
<svg width="372.47876px" height="549.3513px" viewBox="0 0 372.47876 549.3513" version="1.1" xmlns:xlink="http://www.w3.org/1999/xlink" xmlns="http://www.w3.org/2000/svg">
  <defs>
    <linearGradient gradientUnits="userSpaceOnUse" x1="152.09131" y1="512" x2="82.86029" y2="0" id="gradient_1">
      <stop offset="0%" stop-color="#F267FF" />
      <stop offset="100%" stop-color="#44FCFF" />
    </linearGradient>
    <path d="M365.807 475.943C354.357 492.195 320.705 514.294 273.767 520.89C154.142 537.703 115.839 453.413 108.629 402.117L88.5885 259.519L41.5507 266.129C36.1042 266.895 31.0218 263.065 30.2563 257.618L20.7926 190.28C19.7905 183.15 23.356 176.186 29.7558 172.863C88.1185 142.647 99.8855 86.2601 96.9383 45.1704C96.1996 34.1661 101.106 28.1244 110.613 26.7884L180.823 16.921C186.27 16.1555 191.352 19.9855 192.118 25.4319L208.15 139.511L290.342 127.959C295.789 127.194 300.858 130.925 301.623 136.371L312.993 217.276C313.759 222.723 309.929 227.805 304.482 228.571L221.894 240.178L240.432 372.081C245.192 405.949 271.361 421.861 312.753 398.069C317.241 395.52 321.22 393.648 325.023 394.123C328.614 394.527 331.24 396.683 333.45 400.916L364.185 461.529C366.663 466.23 368.928 471.566 365.807 475.943L365.807 475.943Z" id="path_1" />
    <clipPath id="clip_1">
      <use xlink:href="#path_1" />
    </clipPath>
  </defs>
  <g id="tumblr">
    <g id="Shape">
      <use stroke="none" fill="#000000" fill-opacity="0.101960786" xlink:href="#path_1" />
      <g clip-path="url(#clip_1)">
        <use xlink:href="#path_1" fill="none" stroke="url(#gradient_1)" stroke-width="42" />
      </g>
    </g>
  </g>
</svg>