<?xml version="1.0" encoding="utf-8"?>
<svg width="564.8886px" height="483.04663px" viewBox="0 0 564.8886 483.04663" version="1.1" xmlns:xlink="http://www.w3.org/1999/xlink" xmlns="http://www.w3.org/2000/svg">
  <g id="twitter" transform="matrix(0.9902682 -0.139173 0.139173 0.9902682 1.5258789E-05 71.25647)">
    <path d="M459.37 103.634C459.695 108.182 459.695 112.731 459.695 117.279C459.695 255.999 354.112 415.837 161.137 415.837C101.685 415.837 46.457 398.618 9.55766e-06 368.731C8.44701 369.705 16.568 370.03 25.34 370.03C74.395 370.03 119.553 353.462 155.614 325.198C109.482 324.223 70.822 294.01 57.502 252.426C64 253.4 70.497 254.05 77.32 254.05C86.741 254.05 96.163 252.75 104.934 250.477C56.853 240.73 20.791 198.497 20.791 147.492L20.791 146.193C34.76 153.99 51.005 158.863 68.222 159.512C39.958 140.669 21.441 108.507 21.441 72.1209C21.441 52.6289 26.638 34.7609 35.735 19.1669C87.39 82.8419 165.035 124.425 252.1 128.974C250.476 121.177 249.501 113.056 249.501 104.934C249.501 47.1059 296.283 -0.00013107 354.435 -0.000131339C384.648 -0.000131479 411.937 12.6699 431.105 33.1369C454.82 28.5889 477.561 19.8169 497.704 7.79687C489.906 32.1629 473.338 52.6299 451.572 65.6239C472.689 63.3509 493.156 57.5019 511.998 49.3809C497.706 70.1719 479.837 88.6889 459.37 103.634L459.37 103.634Z" id="Shape" fill="#56A5E6" stroke="none" />
  </g>
</svg>