<?xml version="1.0" encoding="utf-8"?>
<svg width="530.12714px" height="571.5073px" viewBox="0 0 530.12714 571.5073" version="1.1" xmlns:xlink="http://www.w3.org/1999/xlink" xmlns="http://www.w3.org/2000/svg">
  <g id="twitch" transform="matrix(0.9902682 -0.139173 0.139173 0.9902682 0 64.48999)">
    <path d="M366.86 103.47L328.23 103.47L328.23 213.17L366.86 213.17L366.86 103.47ZM260.69 103L222.06 103L222.06 212.75L260.69 212.75L260.69 103ZM96.52 -5.58986e-07L2.33028e-06 91.42L3.85304e-06 420.58L115.83 420.58L115.83 512L212.36 420.58L289.61 420.58L463.38 256L463.38 -2.25616e-06L96.52 -5.58986e-07ZM424.76 237.75L347.54 310.87L270.3 310.87L202.7 374.87L202.7 310.87L115.83 310.87L115.83 36.58L424.76 36.58L424.76 237.75Z" id="Shape" fill="#8848F1" fill-rule="evenodd" stroke="none" />
  </g>
</svg>