<?xml version="1.0" encoding="utf-8"?>
<svg width="594.2615px" height="456.27014px" viewBox="0 0 594.2615 456.27014" version="1.1" xmlns:xlink="http://www.w3.org/1999/xlink" xmlns="http://www.w3.org/2000/svg">
  <g id="youtube" transform="matrix(0.9902682 -0.139173 0.139173 0.9902682 0 76.00714)">
    <path d="M534.722 60.0829C528.441 36.4329 509.935 17.8069 486.438 11.4859C443.848 -6.71952e-05 273.067 -6.4825e-05 273.067 -6.4825e-05C273.067 -6.4825e-05 102.287 -6.24548e-05 59.6959 11.4859C36.1989 17.8079 17.6929 36.4329 11.4119 60.0829C-0.000106336 102.95 -0.000105095 192.388 -0.000105095 192.388C-0.000105095 192.388 -0.000103854 281.826 11.4119 324.693C17.6929 348.343 36.1989 366.193 59.6959 372.514C102.287 384 273.067 384 273.067 384C273.067 384 443.847 384 486.438 372.514C509.935 366.193 528.441 348.343 534.722 324.693C546.134 281.826 546.134 192.388 546.134 192.388C546.134 192.388 546.134 102.95 534.722 60.0829L534.722 60.0829ZM217.212 273.591L217.212 111.185L359.951 192.39L217.212 273.591L217.212 273.591Z" id="Shape" fill="#EF241B" fill-rule="evenodd" stroke="none" />
  </g>
</svg>